<svg xmlns="http://www.w3.org/2000/svg" width="355.465" height="316" viewBox="0 0 355.4651162790697 316"><path fill="none" stroke="#000" d="M70 260h280M70 236h280M70 212h280M70 188h280M70 164h280M70 140h280M70 116h280M70 92h280M70 68h280M70 44h280M70 20h280" opacity=".3"/><path fill="none" stroke="#000" d="M112.326 266v-6" stroke-width="2"/><path fill="#80f6ff" d="M89.535 260V44h45.581v216"/><path fill="#80f6ff" stroke="#000" d="M177.442 266v-6" stroke-width="2"/><path fill="#80f6ff" d="M154.651 260V116h45.582v144"/><path fill="#80f6ff" stroke="#000" d="M242.558 266v-6" stroke-width="2"/><path fill="#80f6ff" d="M219.767 260V140h45.582v120"/><path fill="#80f6ff" stroke="#000" d="M307.674 266v-6" stroke-width="2"/><path fill="#80f6ff" d="M284.884 260V68h45.581v192"/><path fill="#80f6ff" stroke="#000" d="M70 260h280M70 260V20" stroke-width="2"/></svg>
